<?xml version="1.0" encoding="UTF-8" standalone="no"?><!-- Generator: Gravit.io --><svg xmlns="http://www.w3.org/2000/svg" xmlns:xlink="http://www.w3.org/1999/xlink" style="isolation:isolate" viewBox="0 0 3970 1066.453" width="3970pt" height="1066.453pt"><linearGradient id="_lgradient_2" x1="-0.011142038971568513" y1="-0.011791871475954507" x2="0.9938039543302696" y2="0.9909604299907665" gradientTransform="matrix(532,0,0,368.749,165,697.704)" gradientUnits="userSpaceOnUse"><stop offset="1.7391304347826086%" stop-opacity="1" style="stop-color:rgb(255,124,247)"/><stop offset="100%" stop-opacity="1" style="stop-color:rgb(255,203,252)"/></linearGradient><path d=" M 480.251 697.704 L 575 792.453 L 616 747.453 L 697 1066.453 L 373 993.453 L 422 945.453 L 165 698.453 L 165 698.453 L 458.5 698.453 C 465.812 698.453 473.065 698.201 480.251 697.704 Z " fill="url(#_lgradient_2)"/><linearGradient id="_lgradient_3" x1="0.13056277056277052" y1="0.05232744783306609" x2="0.9350649350649348" y2="0.7710005350454795" gradientTransform="matrix(770,0,0,623,0,75.453)" gradientUnits="userSpaceOnUse"><stop offset="2.1739130434782608%" stop-opacity="1" style="stop-color:rgb(241,93,232)"/><stop offset="100%" stop-opacity="1" style="stop-color:rgb(184,58,177)"/></linearGradient><path d=" M 458.5 287.841 L 0 287.841 L 119 75.453 L 458.5 75.453 L 458.5 75.453 C 630.422 75.453 770 215.032 770 386.953 C 770 558.875 630.422 698.453 458.5 698.453 L 165 698.453 L 280 486.065 L 458.5 486.065 L 458.5 486.065 C 513.201 486.065 557.612 441.654 557.612 386.953 C 557.612 332.252 513.201 287.841 458.5 287.841 L 458.5 287.841 L 458.5 287.841 Z " fill="url(#_lgradient_3)"/><path d=" M 3760.86 775.32 L 3760.86 775.32 L 3760.86 775.32 Q 3689.88 775.32 3638.01 741 L 3638.01 741 L 3638.01 741 Q 3586.14 706.68 3562.74 645.84 L 3562.74 645.84 L 3668.82 602.94 L 3668.82 602.94 Q 3703.14 663 3760.86 663 L 3760.86 663 L 3760.86 663 Q 3792.06 663 3810.78 647.4 L 3810.78 647.4 L 3810.78 647.4 Q 3829.5 631.8 3829.5 603.72 L 3829.5 603.72 L 3829.5 603.72 Q 3829.5 581.88 3810.78 565.5 L 3810.78 565.5 L 3810.78 565.5 Q 3792.06 549.12 3756.96 549.12 L 3756.96 549.12 L 3697.68 549.12 L 3697.68 435.24 L 3756.96 435.24 L 3756.96 435.24 Q 3782.7 435.24 3797.52 420.03 L 3797.52 420.03 L 3797.52 420.03 Q 3812.34 404.82 3812.34 377.52 L 3812.34 377.52 L 3812.34 377.52 Q 3812.34 354.12 3797.13 338.52 L 3797.13 338.52 L 3797.13 338.52 Q 3781.92 322.92 3755.4 322.92 L 3755.4 322.92 L 3755.4 322.92 Q 3712.5 322.92 3685.98 365.82 L 3685.98 365.82 L 3579.9 324.48 L 3579.9 324.48 Q 3606.42 271.44 3652.05 241.02 L 3652.05 241.02 L 3652.05 241.02 Q 3697.68 210.6 3756.96 210.6 L 3756.96 210.6 L 3756.96 210.6 Q 3834.18 210.6 3881.76 254.28 L 3881.76 254.28 L 3881.76 254.28 Q 3929.34 297.96 3929.34 367.38 L 3929.34 367.38 L 3929.34 367.38 Q 3929.34 446.16 3865.38 488.28 L 3865.38 488.28 L 3865.38 488.28 Q 3899.7 501.54 3923.1 535.86 L 3923.1 535.86 L 3923.1 535.86 Q 3946.5 570.18 3946.5 620.1 L 3946.5 620.1 L 3946.5 620.1 Q 3946.5 687.18 3895.02 731.25 L 3895.02 731.25 L 3895.02 731.25 Q 3843.54 775.32 3760.86 775.32 Z  M 1155.6 765.96 L 1042.5 765.96 L 1042.5 367.38 L 1155.6 367.38 L 1155.6 403.26 L 1155.6 403.26 Q 1163.4 387.66 1183.68 372.84 L 1183.68 372.84 L 1183.68 372.84 Q 1203.96 358.02 1231.26 358.02 L 1231.26 358.02 L 1231.26 358.02 Q 1278.06 358.02 1310.04 391.56 L 1310.04 391.56 L 1295.22 494.52 L 1295.22 494.52 Q 1262.46 467.22 1224.24 467.22 L 1224.24 467.22 L 1224.24 467.22 Q 1155.6 467.22 1155.6 549.9 L 1155.6 549.9 L 1155.6 765.96 L 1155.6 765.96 Z  M 1499.1 775.32 L 1499.1 775.32 L 1499.1 775.32 Q 1413.3 775.32 1363.77 719.94 L 1363.77 719.94 L 1363.77 719.94 Q 1314.24 664.56 1314.24 567.06 L 1314.24 567.06 L 1314.24 567.06 Q 1314.24 470.34 1364.16 414.18 L 1364.16 414.18 L 1364.16 414.18 Q 1414.08 358.02 1499.1 358.02 L 1499.1 358.02 L 1499.1 358.02 Q 1583.34 358.02 1632.87 414.18 L 1632.87 414.18 L 1632.87 414.18 Q 1682.4 470.34 1682.4 567.06 L 1682.4 567.06 L 1682.4 567.06 Q 1682.4 664.56 1633.26 719.94 L 1633.26 719.94 L 1633.26 719.94 Q 1584.12 775.32 1499.1 775.32 Z  M 1499.1 666.12 L 1499.1 666.12 L 1499.1 666.12 Q 1532.64 666.12 1550.97 639.99 L 1550.97 639.99 L 1550.97 639.99 Q 1569.3 613.86 1569.3 567.06 L 1569.3 567.06 L 1569.3 567.06 Q 1569.3 520.26 1550.97 493.74 L 1550.97 493.74 L 1550.97 493.74 Q 1532.64 467.22 1499.1 467.22 L 1499.1 467.22 L 1499.1 467.22 Q 1466.34 467.22 1446.84 493.74 L 1446.84 493.74 L 1446.84 493.74 Q 1427.34 520.26 1427.34 567.06 L 1427.34 567.06 L 1427.34 567.06 Q 1427.34 613.86 1446.84 639.99 L 1446.84 639.99 L 1446.84 639.99 Q 1466.34 666.12 1499.1 666.12 Z  M 2108.58 765.96 L 1995.48 765.96 L 1995.48 729.3 L 1995.48 729.3 Q 1958.04 775.32 1886.28 775.32 L 1886.28 775.32 L 1886.28 775.32 Q 1862.1 775.32 1839.48 767.91 L 1839.48 767.91 L 1839.48 767.91 Q 1816.86 760.5 1795.8 744.12 L 1795.8 744.12 L 1795.8 744.12 Q 1774.74 727.74 1761.87 697.32 L 1761.87 697.32 L 1761.87 697.32 Q 1749 666.9 1749 626.34 L 1749 626.34 L 1749 367.38 L 1862.1 367.38 L 1862.1 574.86 L 1862.1 574.86 Q 1862.1 622.44 1876.14 644.28 L 1876.14 644.28 L 1876.14 644.28 Q 1890.18 666.12 1926.06 666.12 L 1926.06 666.12 L 1926.06 666.12 Q 1961.94 666.12 1978.71 644.28 L 1978.71 644.28 L 1978.71 644.28 Q 1995.48 622.44 1995.48 576.42 L 1995.48 576.42 L 1995.48 367.38 L 2108.58 367.38 L 2108.58 765.96 L 2108.58 765.96 Z  M 2318.7 775.32 L 2318.7 775.32 L 2318.7 775.32 Q 2218.08 775.32 2218.08 666.12 L 2218.08 666.12 L 2218.08 466.44 L 2163.48 466.44 L 2163.48 367.38 L 2218.08 367.38 L 2218.08 256.62 L 2330.4 202.8 L 2330.4 367.38 L 2416.98 367.38 L 2416.98 466.44 L 2330.4 466.44 L 2330.4 655.2 L 2330.4 655.2 Q 2330.4 666.12 2337.03 671.97 L 2337.03 671.97 L 2337.03 671.97 Q 2343.66 677.82 2353.02 677.82 L 2353.02 677.82 L 2353.02 677.82 Q 2387.34 677.82 2421.66 662.22 L 2421.66 662.22 L 2409.18 757.38 L 2409.18 757.38 Q 2372.52 775.32 2318.7 775.32 Z  M 2542.08 329.16 L 2542.08 329.16 L 2542.08 329.16 Q 2515.56 329.16 2496.06 310.05 L 2496.06 310.05 L 2496.06 310.05 Q 2476.56 290.94 2476.56 264.42 L 2476.56 264.42 L 2476.56 264.42 Q 2476.56 237.9 2495.67 219.18 L 2495.67 219.18 L 2495.67 219.18 Q 2514.78 200.46 2542.08 200.46 L 2542.08 200.46 L 2542.08 200.46 Q 2569.38 200.46 2588.1 218.79 L 2588.1 218.79 L 2588.1 218.79 Q 2606.82 237.12 2606.82 264.42 L 2606.82 264.42 L 2606.82 264.42 Q 2606.82 290.94 2588.1 310.05 L 2588.1 310.05 L 2588.1 310.05 Q 2569.38 329.16 2542.08 329.16 Z  M 2598.24 765.96 L 2485.14 765.96 L 2485.14 367.38 L 2598.24 367.38 L 2598.24 765.96 L 2598.24 765.96 Z  M 2907.42 466.44 L 2823.96 466.44 L 2823.96 765.96 L 2710.86 765.96 L 2710.86 466.44 L 2657.82 466.44 L 2657.82 367.38 L 2710.86 367.38 L 2710.86 308.1 L 2710.86 308.1 Q 2710.86 210.6 2813.04 210.6 L 2813.04 210.6 L 2813.04 210.6 Q 2869.98 210.6 2907.42 230.88 L 2907.42 230.88 L 2907.42 322.14 L 2907.42 322.14 Q 2874.66 308.88 2850.48 308.88 L 2850.48 308.88 L 2850.48 308.88 Q 2823.96 308.88 2823.96 331.5 L 2823.96 331.5 L 2823.96 367.38 L 2907.42 367.38 L 2907.42 466.44 L 2907.42 466.44 Z  M 3136.26 917.28 L 3019.26 917.28 L 3079.32 761.28 L 2928.78 367.38 L 3045.78 367.38 L 3126.9 580.32 L 3126.9 580.32 Q 3135.48 603.72 3139.38 617.76 L 3139.38 617.76 L 3139.38 617.76 Q 3143.28 603.72 3151.86 580.32 L 3151.86 580.32 L 3232.2 367.38 L 3348.42 367.38 L 3136.26 917.28 L 3136.26 917.28 Z " fill="rgb(37,44,68)"/></svg>