<svg width="24" height="24" viewBox="0 0 24 24" fill="none" xmlns="http://www.w3.org/2000/svg">
<path fill-rule="evenodd" clip-rule="evenodd" d="M8.95487 3.05188C9.45056 2.88571 9.99058 3.12939 10.194 3.611L10.8211 5.09607C11.6184 5.0442 12.3817 5.0442 13.1789 5.09607L13.806 3.61101C14.0094 3.12939 14.5494 2.88571 15.0451 3.05188C16.4172 3.51184 17.3825 3.87303 18.2447 4.30661C19.1166 4.74507 19.8527 5.24207 20.784 5.94452C20.9579 6.07569 21.0842 6.26006 21.1438 6.4696L20.1818 6.74287C21.1438 6.4696 21.1438 6.46969 21.1438 6.46981L21.1439 6.47017L21.1442 6.47133L21.1454 6.47539L21.1496 6.49038L21.1655 6.5471C21.1793 6.59652 21.1993 6.6688 21.2247 6.7617C21.2754 6.94747 21.3475 7.21586 21.4339 7.54894C21.6066 8.21466 21.8369 9.14107 22.0674 10.1843C22.5226 12.2448 23 14.8525 23 16.8C23 17.0958 22.869 17.3764 22.6423 17.5664L22 16.8C22.6423 17.5664 22.6423 17.5665 22.6422 17.5666L22.642 17.5667L22.6414 17.5672L22.6396 17.5688L22.6328 17.5744L22.608 17.5951C22.5864 17.613 22.555 17.639 22.5147 17.6722C22.434 17.7386 22.3175 17.8338 22.1723 17.9506C21.8822 18.184 21.4761 18.5049 21.0113 18.8555C20.0982 19.5443 18.9 20.3925 17.9038 20.8934C17.5176 21.0876 17.0503 21.0117 16.7454 20.7051L17.4545 20C16.7454 20.7051 16.7453 20.705 16.7452 20.7049L16.7449 20.7046L16.7443 20.7039L16.7426 20.7022L16.7377 20.6973L16.7223 20.6816C16.7096 20.6685 16.692 20.6502 16.67 20.6271C16.6261 20.5809 16.5649 20.5152 16.4907 20.4328C16.3429 20.2684 16.1416 20.0345 15.9244 19.7533C15.6333 19.3762 15.287 18.8803 15.0084 18.3292C12.9715 18.5379 11.0285 18.5379 8.99161 18.3292C8.71298 18.8803 8.36675 19.3762 8.07558 19.7533C7.85839 20.0345 7.6571 20.2684 7.50927 20.4328C7.43514 20.5152 7.37385 20.5809 7.32999 20.6271C7.30805 20.6502 7.29042 20.6685 7.27767 20.6816L7.26226 20.6973L7.25743 20.7022L7.25575 20.7039L7.2551 20.7046L7.25482 20.7049C7.25469 20.705 7.25457 20.7051 6.54545 20L7.25457 20.7051C6.94975 21.0117 6.48244 21.0876 6.0962 20.8934C5.09996 20.3925 3.90185 19.5443 2.98872 18.8555C2.52393 18.5049 2.11777 18.184 1.82768 17.9506C1.68249 17.8338 1.56599 17.7386 1.48534 17.6722C1.445 17.639 1.41361 17.613 1.39204 17.5951L1.36715 17.5744L1.36044 17.5688L1.35856 17.5672L1.35799 17.5667L1.35779 17.5666C1.35772 17.5665 1.35766 17.5664 2 16.8L1.35766 17.5664C1.13096 17.3764 1 17.0958 1 16.8C1 14.8525 1.47736 12.2448 1.93264 10.1843C2.16315 9.14107 2.39345 8.21466 2.56612 7.54894C2.65252 7.21586 2.72464 6.94747 2.77535 6.7617C2.8007 6.6688 2.82072 6.59652 2.83449 6.5471L2.85038 6.49038L2.8546 6.47539L2.85575 6.47133L2.85608 6.47017L2.85619 6.46981C2.85622 6.46969 2.85625 6.4696 3.81818 6.74287L2.85625 6.4696C2.91577 6.26006 3.04209 6.07569 3.216 5.94452C4.14727 5.24207 4.88337 4.74507 5.75529 4.30661C6.61754 3.87303 7.58283 3.51184 8.95487 3.05188ZM4.69095 7.33906C4.6432 7.51471 4.57847 7.75651 4.50206 8.05109C4.33383 8.69966 4.10958 9.60182 3.88554 10.6158C3.47153 12.4894 3.0759 14.6685 3.00969 16.3345L3.08141 16.3923C3.3595 16.6161 3.7488 16.9237 4.1931 17.2588C4.86957 17.7691 5.64078 18.318 6.3304 18.7352C6.38263 18.6712 6.43702 18.6029 6.4926 18.5309C6.61279 18.3753 6.73282 18.2097 6.84617 18.0393C6.38468 17.9627 5.91632 17.8764 5.43917 17.7804C4.89773 17.6715 4.54709 17.1443 4.656 16.6028C4.76491 16.0614 5.29212 15.7107 5.83356 15.8197C6.75537 16.0051 7.63484 16.1512 8.48864 16.2588C10.8906 16.5614 13.1094 16.5614 15.5114 16.2588C16.3652 16.1512 17.2446 16.0051 18.1664 15.8197C18.7079 15.7107 19.2351 16.0614 19.344 16.6028C19.4529 17.1443 19.1023 17.6715 18.5608 17.7804C18.0837 17.8764 17.6153 17.9627 17.1538 18.0393C17.2672 18.2097 17.3872 18.3753 17.5074 18.5309C17.563 18.6029 17.6174 18.6712 17.6696 18.7352C18.3592 18.318 19.1304 17.7691 19.8069 17.2588C20.2512 16.9237 20.6405 16.6161 20.9186 16.3923L20.9903 16.3345C20.9241 14.6685 20.5285 12.4894 20.1145 10.6158C19.8904 9.60182 19.6662 8.69966 19.4979 8.05109C19.4215 7.75651 19.3568 7.51471 19.3091 7.33906C18.5602 6.78544 17.9899 6.4171 17.3462 6.09342C16.7885 5.813 16.1581 5.55711 15.2855 5.2488L15.2149 5.41577C15.3588 5.4563 15.4929 5.49754 15.6138 5.53678C15.8405 5.61034 16.0313 5.68031 16.1668 5.73245C16.2347 5.75858 16.2892 5.78041 16.3278 5.7962L16.3738 5.81519L16.3873 5.82093L16.3917 5.82278L16.3933 5.82345L16.3939 5.82372L16.3942 5.82383C16.3943 5.82389 16.3944 5.82394 16 6.74287L16.3944 5.82394C16.9019 6.04176 17.1368 6.62977 16.9189 7.13728C16.7013 7.64447 16.1139 7.87933 15.6066 7.66223L15.6064 7.66217L15.6058 7.6619L15.6056 7.66181L15.6005 7.65965L15.5713 7.64761C15.5443 7.63657 15.5026 7.61982 15.4485 7.59899C15.3399 7.55722 15.1833 7.49973 14.9966 7.43915C14.6138 7.31495 14.1447 7.19101 13.7175 7.14774C12.525 7.02697 11.4751 7.02697 10.2826 7.14774C9.85535 7.19101 9.3862 7.31495 9.00343 7.43915C8.81672 7.49973 8.66009 7.55722 8.55153 7.599C8.49742 7.61982 8.4557 7.63657 8.42866 7.64762L8.39954 7.65965L8.3944 7.66181L8.39418 7.66191C7.88672 7.87957 7.29885 7.64472 7.08106 7.13728C6.86324 6.62976 7.09808 6.04176 7.6056 5.82394L8 6.74287C7.6056 5.82394 7.60572 5.82388 7.60584 5.82383L7.60612 5.82371L7.60674 5.82345L7.6083 5.82278L7.61266 5.82092L7.62626 5.81519L7.67219 5.7962C7.71083 5.78041 7.7653 5.75858 7.83321 5.73245C7.96869 5.68031 8.15947 5.61034 8.38618 5.53678C8.50711 5.49754 8.64122 5.4563 8.78507 5.41578L8.71456 5.24879C7.84188 5.55711 7.21146 5.813 6.6538 6.09342C6.01013 6.4171 5.43975 6.78544 4.69095 7.33906ZM17 12.5C17 13.3284 16.3284 14 15.5 14C14.6716 14 14 13.3284 14 12.5C14 11.6716 14.6716 11 15.5 11C16.3284 11 17 11.6716 17 12.5ZM8.5 14C9.32843 14 10 13.3284 10 12.5C10 11.6716 9.32843 11 8.5 11C7.67157 11 7 11.6716 7 12.5C7 13.3284 7.67157 14 8.5 14Z" fill="black"/>
</svg>
