<svg width="24" height="24" viewBox="0 0 24 24" fill="none" xmlns="http://www.w3.org/2000/svg">
<path d="M23 3C22.0424 3.67548 20.9821 4.19211 19.86 4.53C19.2577 3.83751 18.4573 3.34669 17.567 3.12393C16.6767 2.90116 15.7395 2.9572 14.8821 3.28445C14.0247 3.61171 13.2884 4.1944 12.773 4.95372C12.2575 5.71303 11.9877 6.61234 12 7.53V8.53C10.2426 8.57557 8.50127 8.18581 6.93101 7.39545C5.36074 6.60508 4.01032 5.43864 3 4C3 4 -1 13 8 17C5.94053 18.398 3.48716 19.0989 1 19C10 24 21 19 21 7.5C20.9991 7.22145 20.9723 6.94359 20.92 6.67C21.9406 5.66349 22.6608 4.39271 23 3V3Z" stroke="black" stroke-width="2" stroke-linecap="round" stroke-linejoin="round"/>
</svg>
