<svg width="24" height="24" viewBox="0 0 24 24" fill="none" xmlns="http://www.w3.org/2000/svg">
<path fill-rule="evenodd" clip-rule="evenodd" d="M12 2C6.486 2 2 6.486 2 12C2 17.514 6.486 22 12 22C17.514 22 22 17.514 22 12C22 6.486 17.514 2 12 2ZM19.7782 12C19.7782 13.193 19.5001 14.321 19.0165 15.3336H14.2219C13.093 15.3336 13.1109 14.2219 13.1109 14.2219C13.1109 13.6109 12.6109 13.1109 12 13.1109H9.9632C9.93117 13.1109 9.90461 13.1281 9.87336 13.1297C9.83976 13.1281 9.81242 13.1109 9.77804 13.1109C9.16632 13.1109 8.66632 12.6109 8.66632 12C8.66632 11.3891 9.16632 10.8891 9.77804 10.8891V10.882L11.9998 10.8891C12.6108 10.8891 13.1108 10.3891 13.1108 9.77812C13.1108 9.77812 13.1108 8.6664 14.2217 8.6664H15.3334C15.9444 8.6664 16.4444 8.1664 16.4444 7.55546V5.62656C18.4568 7.03438 19.778 9.36416 19.778 12L19.7782 12ZM4.22178 12C4.22178 11.6257 4.25772 11.2601 4.3085 10.9C5.32412 10.9625 5.3335 12 5.3335 12C5.3335 12.6109 5.8335 13.1109 6.44444 13.1109C6.44444 13.1109 7.55538 13.1343 7.55538 14.2218V15.3336C7.55538 15.9445 8.05538 16.4445 8.66632 16.4445C9.77804 16.4445 9.77804 17.5554 9.77804 17.5554V19.45C6.57024 18.4914 4.22184 15.5156 4.22184 12" fill="#0DA5CC"/>
</svg>
